<svg width="24" height="10" viewBox="0 0 24 10" fill="none" xmlns="http://www.w3.org/2000/svg">
    <path
        d="M2.7 9.036L0.864 4.044C0.816 3.9 0.748 3.792 0.66 3.72C0.58 3.64 0.472 3.576 0.336 3.528L0.132 3.468V3.24H3V3.468L2.808 3.516C2.504 3.596 2.404 3.788 2.508 4.092L3.6 7.356L4.608 4.68L4.428 4.14C4.372 3.972 4.312 3.84 4.248 3.744C4.192 3.648 4.108 3.58 3.996 3.54L3.792 3.468V3.24H6.264V3.468L6.096 3.528C5.968 3.576 5.888 3.644 5.856 3.732C5.832 3.812 5.848 3.932 5.904 4.092L6.972 7.284L8.052 4.104C8.148 3.792 8.076 3.604 7.836 3.54L7.596 3.468V3.24H9.204V3.468L8.94 3.54C8.804 3.58 8.7 3.64 8.628 3.72C8.556 3.8 8.496 3.912 8.448 4.056L6.72 9.036H6.096L4.788 5.208L3.372 9.036H2.7ZM12.3106 9.168C11.7186 9.168 11.1986 9.044 10.7506 8.796C10.3106 8.548 9.96659 8.196 9.71859 7.74C9.47859 7.284 9.35859 6.74 9.35859 6.108C9.35859 5.476 9.48659 4.932 9.74259 4.476C10.0066 4.02 10.3586 3.672 10.7986 3.432C11.2466 3.184 11.7506 3.06 12.3106 3.06C12.8706 3.06 13.3706 3.184 13.8106 3.432C14.2586 3.672 14.6106 4.02 14.8666 4.476C15.1306 4.924 15.2626 5.468 15.2626 6.108C15.2626 6.74 15.1386 7.288 14.8906 7.752C14.6506 8.208 14.3106 8.56 13.8706 8.808C13.4306 9.048 12.9106 9.168 12.3106 9.168ZM12.3106 8.832C12.5986 8.832 12.8306 8.756 13.0066 8.604C13.1906 8.444 13.3226 8.168 13.4026 7.776C13.4826 7.384 13.5226 6.836 13.5226 6.132C13.5226 5.42 13.4826 4.868 13.4026 4.476C13.3226 4.076 13.1906 3.8 13.0066 3.648C12.8306 3.488 12.5986 3.408 12.3106 3.408C12.0226 3.408 11.7906 3.488 11.6146 3.648C11.4386 3.8 11.3066 4.076 11.2186 4.476C11.1386 4.868 11.0986 5.42 11.0986 6.132C11.0986 6.836 11.1386 7.384 11.2186 7.776C11.3066 8.168 11.4386 8.444 11.6146 8.604C11.7906 8.756 12.0226 8.832 12.3106 8.832ZM15.7799 9V8.772L15.9599 8.724C16.2239 8.636 16.3559 8.436 16.3559 8.124C16.3559 7.852 16.3559 7.58 16.3559 7.308C16.3639 7.028 16.3679 6.752 16.3679 6.48V1.92C16.3679 1.752 16.3399 1.628 16.2839 1.548C16.2279 1.46 16.1199 1.396 15.9599 1.356L15.7799 1.308V1.08L17.8799 0.576L18.0359 0.684L17.9879 2.376V8.124C17.9959 8.284 18.0279 8.416 18.0839 8.52C18.1479 8.616 18.2559 8.684 18.4079 8.724L18.5759 8.772V9H15.7799ZM19.1312 9V8.772L19.3112 8.724C19.6312 8.636 19.7952 8.44 19.8032 8.136C19.8032 7.856 19.8032 7.58 19.8032 7.308C19.8112 7.028 19.8152 6.752 19.8152 6.48V3.612H19.1312V3.348L19.3952 3.3C19.5552 3.276 19.6712 3.22 19.7432 3.132C19.8152 3.036 19.8672 2.904 19.8992 2.736C19.9872 2.416 20.1032 2.14 20.2472 1.908C20.3992 1.668 20.5792 1.448 20.7872 1.248C21.0832 0.96 21.3992 0.76 21.7352 0.648C22.0712 0.536 22.3992 0.48 22.7192 0.48C23.0312 0.48 23.3152 0.544 23.5712 0.672C23.8352 0.792 23.9672 1 23.9672 1.296C23.9672 1.504 23.9032 1.672 23.7752 1.8C23.6552 1.92 23.4792 1.98 23.2472 1.98C22.8792 1.98 22.5552 1.764 22.2752 1.332L22.1312 1.164C22.0352 1.044 21.9392 0.996 21.8432 1.02C21.7472 1.044 21.6792 1.124 21.6392 1.26C21.5752 1.516 21.5232 1.816 21.4832 2.16C21.4512 2.504 21.4312 2.864 21.4232 3.24H22.8032V3.612H21.4232V6.48C21.4232 6.752 21.4232 7.024 21.4232 7.296C21.4312 7.56 21.4352 7.828 21.4352 8.1C21.4352 8.42 21.5952 8.616 21.9152 8.688L22.2272 8.772V9H19.1312Z"
        fill="white"
      />
</svg>
    