<svg width="50" height="10" viewBox="0 0 50 10" fill="none" xmlns="http://www.w3.org/2000/svg">
    <path d="M2.328 9.168C1.944 9.168 1.596 9.124 1.284 9.036C0.98 8.956 0.688 8.84 0.408 8.688V7.272H0.732L1.092 7.956C1.244 8.252 1.416 8.472 1.608 8.616C1.808 8.76 2.06 8.832 2.364 8.832C2.74 8.832 3.04 8.752 3.264 8.592C3.488 8.424 3.6 8.2 3.6 7.92C3.6 7.664 3.516 7.456 3.348 7.296C3.18 7.136 2.88 6.988 2.448 6.852L1.92 6.684C1.448 6.54 1.072 6.324 0.792 6.036C0.52 5.74 0.384 5.372 0.384 4.932C0.384 4.588 0.476 4.276 0.66 3.996C0.844 3.708 1.112 3.48 1.464 3.312C1.816 3.144 2.244 3.06 2.748 3.06C3.076 3.06 3.376 3.1 3.648 3.18C3.928 3.252 4.2 3.356 4.464 3.492L4.392 4.776H4.08L3.708 4.092C3.58 3.836 3.448 3.66 3.312 3.564C3.184 3.46 2.984 3.408 2.712 3.408C2.424 3.408 2.168 3.484 1.944 3.636C1.728 3.78 1.62 3.984 1.62 4.248C1.62 4.496 1.712 4.7 1.896 4.86C2.08 5.012 2.376 5.156 2.784 5.292L3.3 5.448C3.884 5.632 4.3 5.876 4.548 6.18C4.796 6.484 4.92 6.848 4.92 7.272C4.92 7.84 4.692 8.3 4.236 8.652C3.788 8.996 3.152 9.168 2.328 9.168ZM7.72284 9.168C7.22684 9.168 6.83484 9.048 6.54684 8.808C6.26684 8.56 6.12684 8.16 6.12684 7.608C6.12684 7.416 6.12684 7.236 6.12684 7.068C6.13484 6.892 6.13884 6.688 6.13884 6.456V3.612H5.28684V3.348L5.61084 3.3C5.84284 3.26 6.03884 3.188 6.19884 3.084C6.36684 2.98 6.51884 2.836 6.65484 2.652L7.43484 1.572H7.79484L7.75884 3.24H9.12684V3.612H7.74684V7.704C7.74684 7.992 7.80684 8.208 7.92684 8.352C8.05484 8.496 8.21084 8.568 8.39484 8.568C8.55484 8.568 8.69884 8.532 8.82684 8.46C8.95484 8.38 9.08284 8.276 9.21084 8.148L9.36684 8.328C9.21484 8.592 9.00284 8.8 8.73084 8.952C8.45884 9.096 8.12284 9.168 7.72284 9.168ZM11.5076 9.168C11.0516 9.168 10.6636 9.04 10.3436 8.784C10.0316 8.52 9.87563 8.144 9.87563 7.656C9.87563 7.272 10.0596 6.92 10.4276 6.6C10.8036 6.272 11.3916 6.032 12.1916 5.88C12.3276 5.848 12.4836 5.82 12.6596 5.796C12.8436 5.764 13.0236 5.732 13.1996 5.7V4.848C13.1996 4.304 13.1316 3.928 12.9956 3.72C12.8596 3.512 12.6436 3.408 12.3476 3.408H12.3116C12.1276 3.408 11.9796 3.468 11.8676 3.588C11.7636 3.7 11.6956 3.888 11.6636 4.152L11.6276 4.308C11.6036 4.628 11.5196 4.864 11.3756 5.016C11.2316 5.16 11.0516 5.232 10.8356 5.232C10.6356 5.232 10.4676 5.172 10.3316 5.052C10.2036 4.924 10.1396 4.76 10.1396 4.56C10.1396 4.232 10.2516 3.956 10.4756 3.732C10.6996 3.508 10.9956 3.34 11.3636 3.228C11.7396 3.116 12.1436 3.06 12.5756 3.06C13.2876 3.06 13.8316 3.232 14.2076 3.576C14.5836 3.92 14.7716 4.48 14.7716 5.256V7.932C14.7716 8.276 14.9356 8.448 15.2636 8.448H15.5396L15.6596 8.58C15.5156 8.764 15.3556 8.904 15.1796 9C15.0036 9.104 14.7636 9.156 14.4596 9.156C14.1156 9.156 13.8396 9.076 13.6316 8.916C13.4316 8.748 13.2996 8.528 13.2356 8.256C12.9796 8.528 12.7276 8.748 12.4796 8.916C12.2316 9.084 11.9076 9.168 11.5076 9.168ZM12.2036 8.4C12.3636 8.4 12.5156 8.364 12.6596 8.292C12.8036 8.22 12.9836 8.1 13.1996 7.932V6.012C12.9916 6.044 12.7796 6.084 12.5636 6.132C12.2196 6.212 11.9396 6.36 11.7236 6.576C11.5156 6.792 11.4116 7.084 11.4116 7.452C11.4116 7.772 11.4836 8.012 11.6276 8.172C11.7796 8.324 11.9716 8.4 12.2036 8.4ZM15.8965 9V8.772L16.0765 8.712C16.2365 8.672 16.3445 8.604 16.4005 8.508C16.4645 8.412 16.4965 8.284 16.4965 8.124V4.608C16.4885 4.432 16.4565 4.3 16.4005 4.212C16.3445 4.116 16.2365 4.052 16.0765 4.02L15.8965 3.972V3.756L17.8525 3.06L17.9965 3.192L18.1045 4.248V4.332C18.2245 4.108 18.3765 3.9 18.5605 3.708C18.7445 3.516 18.9445 3.36 19.1605 3.24C19.3765 3.12 19.5925 3.06 19.8085 3.06C20.1125 3.06 20.3405 3.14 20.4925 3.3C20.6445 3.46 20.7205 3.664 20.7205 3.912C20.7205 4.184 20.6445 4.392 20.4925 4.536C20.3405 4.672 20.1565 4.74 19.9405 4.74C19.6205 4.74 19.3445 4.596 19.1125 4.308L19.0885 4.284C19.0085 4.188 18.9165 4.136 18.8125 4.128C18.7165 4.112 18.6205 4.16 18.5245 4.272C18.4445 4.352 18.3685 4.448 18.2965 4.56C18.2325 4.664 18.1725 4.788 18.1165 4.932V8.076C18.1165 8.228 18.1485 8.356 18.2125 8.46C18.2765 8.556 18.3845 8.624 18.5365 8.664L18.8965 8.772V9H15.8965ZM20.901 9V8.772L21.081 8.712C21.353 8.632 21.489 8.436 21.489 8.124V1.908C21.489 1.748 21.457 1.628 21.393 1.548C21.329 1.46 21.217 1.396 21.057 1.356L20.901 1.308V1.08L23.001 0.576L23.157 0.684L23.109 2.376V8.124C23.109 8.444 23.245 8.644 23.517 8.724L23.685 8.772V9H20.901ZM25.293 9L23.121 6L25.245 4.032C25.349 3.944 25.409 3.848 25.425 3.744C25.441 3.632 25.373 3.556 25.221 3.516L25.029 3.468V3.24H26.901V3.468L26.553 3.552C26.377 3.6 26.233 3.668 26.121 3.756C26.009 3.836 25.877 3.944 25.725 4.08L24.405 5.316L26.445 8.112C26.573 8.28 26.689 8.412 26.793 8.508C26.897 8.596 27.037 8.672 27.213 8.736L27.333 8.772V9H25.293ZM30.1922 9.036L28.3562 4.044C28.3082 3.9 28.2402 3.792 28.1522 3.72C28.0722 3.64 27.9642 3.576 27.8282 3.528L27.6242 3.468V3.24H30.4922V3.468L30.3002 3.516C29.9962 3.596 29.8962 3.788 30.0002 4.092L31.0922 7.356L32.1002 4.68L31.9202 4.14C31.8642 3.972 31.8042 3.84 31.7402 3.744C31.6842 3.648 31.6002 3.58 31.4882 3.54L31.2842 3.468V3.24H33.7562V3.468L33.5882 3.528C33.4602 3.576 33.3802 3.644 33.3482 3.732C33.3242 3.812 33.3402 3.932 33.3962 4.092L34.4642 7.284L35.5442 4.104C35.6402 3.792 35.5682 3.604 35.3282 3.54L35.0882 3.468V3.24H36.6962V3.468L36.4322 3.54C36.2962 3.58 36.1922 3.64 36.1202 3.72C36.0482 3.8 35.9882 3.912 35.9402 4.056L34.2122 9.036H33.5882L32.2802 5.208L30.8642 9.036H30.1922ZM39.8028 3.06C40.3068 3.06 40.7388 3.164 41.0988 3.372C41.4588 3.58 41.7348 3.868 41.9268 4.236C42.1268 4.596 42.2268 5.012 42.2268 5.484C42.2268 5.588 42.2228 5.688 42.2148 5.784C42.2068 5.872 42.1908 5.956 42.1668 6.036H38.5548C38.5628 6.86 38.7148 7.452 39.0108 7.812C39.3148 8.172 39.7548 8.352 40.3308 8.352C40.7308 8.352 41.0548 8.288 41.3028 8.16C41.5508 8.024 41.7788 7.836 41.9868 7.596L42.1788 7.776C41.9388 8.216 41.6108 8.56 41.1948 8.808C40.7868 9.048 40.2988 9.168 39.7308 9.168C39.1628 9.168 38.6628 9.048 38.2308 8.808C37.7988 8.568 37.4588 8.224 37.2108 7.776C36.9708 7.32 36.8508 6.776 36.8508 6.144C36.8508 5.488 36.9908 4.932 37.2708 4.476C37.5588 4.02 37.9268 3.672 38.3748 3.432C38.8308 3.184 39.3068 3.06 39.8028 3.06ZM39.7428 3.408C39.5108 3.408 39.3068 3.476 39.1308 3.612C38.9628 3.74 38.8268 3.972 38.7228 4.308C38.6268 4.636 38.5708 5.1 38.5548 5.7H40.7028C40.7908 4.892 40.7588 4.308 40.6068 3.948C40.4548 3.588 40.1668 3.408 39.7428 3.408ZM44.6542 9.156L42.6862 9V8.772L42.8062 8.748C43.1182 8.676 43.2742 8.476 43.2742 8.148V1.908C43.2742 1.748 43.2422 1.624 43.1782 1.536C43.1222 1.448 43.0142 1.384 42.8542 1.344L42.6982 1.308V1.092L44.7502 0.576L44.9062 0.684L44.8582 2.376V3.636C45.4262 3.252 46.0382 3.06 46.6942 3.06C47.3662 3.06 47.9222 3.308 48.3622 3.804C48.8022 4.292 49.0222 5.048 49.0222 6.072C49.0222 6.752 48.9102 7.324 48.6862 7.788C48.4622 8.244 48.1622 8.588 47.7862 8.82C47.4102 9.052 46.9942 9.168 46.5382 9.168C46.2342 9.168 45.9302 9.128 45.6262 9.048C45.3302 8.968 45.0662 8.844 44.8342 8.676L44.6542 9.156ZM45.9742 8.64C46.2382 8.64 46.4702 8.564 46.6702 8.412C46.8702 8.26 47.0262 8 47.1382 7.632C47.2502 7.264 47.3062 6.76 47.3062 6.12C47.3062 5.48 47.2542 4.98 47.1502 4.62C47.0462 4.26 46.8942 4.008 46.6942 3.864C46.5022 3.72 46.2702 3.648 45.9982 3.648C45.6382 3.648 45.2702 3.752 44.8942 3.96V8.34C45.2222 8.54 45.5822 8.64 45.9742 8.64Z" fill="#1B1B1B"/>
    </svg>
    