<svg width="183" height="103" viewBox="0 0 183 103" fill="none" xmlns="http://www.w3.org/2000/svg">
<path d="M178.286 90.6672C179.704 90.9553 180.835 91.6312 181.677 92.695C182.541 93.7365 182.973 94.9664 182.973 96.3847C182.973 98.357 182.308 99.9193 180.979 101.072C179.671 102.202 177.765 102.767 175.261 102.767H165.882C165.499 102.767 165.189 102.457 165.189 102.074V79.9913C165.189 79.6089 165.499 79.2988 165.882 79.2988H175.062C177.433 79.2988 179.25 79.8196 180.513 80.8612C181.799 81.9027 182.441 83.3653 182.441 85.249C182.441 86.7116 182.053 87.9082 181.278 88.839C180.524 89.7697 179.527 90.3792 178.286 90.6672ZM169.876 88.4456C169.876 88.8281 170.186 89.1382 170.569 89.1382H174.098C175.272 89.1382 176.159 88.8833 176.757 88.3736C177.378 87.8418 177.688 87.0883 177.688 86.1132C177.688 85.1382 177.389 84.3847 176.79 83.8528C176.192 83.321 175.272 83.0551 174.031 83.0551H170.569C170.186 83.0551 169.876 83.3651 169.876 83.7476V88.4456ZM174.33 98.9443C175.571 98.9443 176.524 98.6783 177.189 98.1465C177.854 97.5925 178.186 96.7947 178.186 95.7531C178.186 94.7116 177.843 93.9138 177.156 93.3598C176.491 92.7836 175.538 92.4955 174.297 92.4955H170.569C170.186 92.4955 169.876 92.8056 169.876 93.188V98.2517C169.876 98.6342 170.186 98.9443 170.569 98.9443H174.33Z" fill="white"/>
<path d="M150.417 83.0218V89.1049H158.035C158.417 89.1049 158.727 89.415 158.727 89.7974V92.0024C158.727 92.3849 158.417 92.695 158.035 92.695H150.417V99.0107H159.032C159.415 99.0107 159.725 99.3208 159.725 99.7033V102.074C159.725 102.457 159.415 102.767 159.032 102.767H146.423C146.04 102.767 145.73 102.457 145.73 102.074V79.9913C145.73 79.6089 146.04 79.2988 146.423 79.2988H159.032C159.415 79.2988 159.725 79.6089 159.725 79.9913V82.3293C159.725 82.7118 159.415 83.0218 159.032 83.0218H150.417Z" fill="white"/>
<path d="M139.647 79.2988C140.096 79.2988 140.426 79.7199 140.319 80.1562L134.908 102.239C134.832 102.549 134.554 102.767 134.235 102.767H129.531C129.215 102.767 128.94 102.553 128.861 102.247L124.607 85.7476L120.32 102.249C120.241 102.554 119.966 102.767 119.65 102.767H114.978C114.659 102.767 114.382 102.549 114.306 102.239L108.895 80.1562C108.788 79.7199 109.118 79.2988 109.567 79.2988H113.201C113.532 79.2988 113.817 79.5327 113.881 79.8572L117.36 97.4817L121.881 79.8196C121.959 79.5132 122.235 79.2988 122.552 79.2988H126.63C126.946 79.2988 127.222 79.5126 127.3 79.8185L131.853 97.4817L135.333 79.8572C135.397 79.5327 135.682 79.2988 136.013 79.2988H139.647Z" fill="white"/>
<path d="M94.7502 90.8999L104.089 101.62C104.479 102.068 104.161 102.767 103.566 102.767H100.787C100.584 102.767 100.392 102.678 100.26 102.524L91.1934 91.8972V102.074C91.1934 102.457 90.8834 102.767 90.5009 102.767H88.0965C87.714 102.767 87.4039 102.457 87.4039 102.074V79.9913C87.4039 79.6089 87.714 79.2988 88.0965 79.2988H90.5009C90.8834 79.2988 91.1934 79.6089 91.1934 79.9913V90.0357L100.294 79.5377C100.425 79.386 100.616 79.2988 100.817 79.2988H103.543C104.141 79.2988 104.458 80.0057 104.06 80.4521L94.7502 90.8999Z" fill="white"/>
<path d="M78.2594 102.767C78.0204 102.767 77.7984 102.644 77.6719 102.441L72.0248 93.393H69.3323V102.074C69.3323 102.457 69.0223 102.767 68.6398 102.767H66.2354C65.8529 102.767 65.5428 102.457 65.5428 102.074V79.9913C65.5428 79.6089 65.8529 79.2988 66.2354 79.2988H73.8199C76.5013 79.2988 78.529 79.9526 79.903 81.26C81.2991 82.5675 81.9971 84.2961 81.9971 86.4456C81.9971 88.285 81.4764 89.7919 80.4348 90.9664C79.4154 92.1409 77.9307 92.8944 75.9805 93.2268L81.4419 101.699C81.7389 102.16 81.4081 102.767 80.8598 102.767H78.2594ZM69.3323 90.7005H73.5207C76.5789 90.7005 78.1079 89.3487 78.1079 86.6451C78.1079 85.3598 77.7312 84.3625 76.9778 83.6534C76.2464 82.9221 75.0941 82.5564 73.5207 82.5564H69.3323V90.7005Z" fill="white"/>
<path d="M36.3753 79.2988C36.7578 79.2988 37.0678 79.6089 37.0678 79.9913V81.6645C37.0678 82.0469 36.7578 82.357 36.3753 82.357H30.5193V102.074C30.5193 102.457 30.2093 102.767 29.8268 102.767H27.3892C27.0067 102.767 26.6966 102.457 26.6966 102.074V82.357H20.8739C20.4914 82.357 20.1814 82.0469 20.1814 81.6645V79.9913C20.1814 79.6089 20.4914 79.2988 20.8739 79.2988H36.3753Z" fill="white"/>
<path d="M16.1884 96.518C16.1884 97.6704 15.9114 98.7452 15.3573 99.7424C14.8033 100.717 13.9612 101.504 12.831 102.102C11.7008 102.701 10.3158 103 8.6759 103C7.08033 103 5.65097 102.723 4.38781 102.169C3.12465 101.593 2.11634 100.795 1.36288 99.7756C0.753515 98.9512 0.354325 98.0253 0.165312 96.9979C0.0920026 96.5995 0.413961 96.2521 0.819113 96.2521H3.50056C3.85406 96.2521 4.14438 96.5206 4.23115 96.8633C4.4242 97.6257 4.81991 98.2973 5.41828 98.8781C6.19391 99.6094 7.22438 99.9751 8.5097 99.9751C9.66205 99.9751 10.5485 99.6648 11.169 99.0443C11.8116 98.4238 12.133 97.626 12.133 96.651C12.133 95.8089 11.9003 95.1219 11.4349 94.59C10.9695 94.036 10.3934 93.6039 9.70637 93.2936C9.01939 92.9834 8.07756 92.6288 6.88089 92.2299C5.41828 91.7645 4.22161 91.2992 3.29086 90.8338C2.38227 90.3684 1.60665 89.6925 0.963989 88.8061C0.32133 87.9197 0 86.7562 0 85.3158C0 84.0526 0.310249 82.9446 0.930748 81.9917C1.55125 81.0388 2.43767 80.3075 3.59003 79.7978C4.74238 79.2659 6.07202 79 7.57895 79C9.9723 79 11.867 79.5762 13.2632 80.7285C14.4828 81.7195 15.2518 82.9727 15.5701 84.4881C15.6547 84.891 15.3307 85.2493 14.9191 85.2493H12.183C11.8465 85.2493 11.5655 85.0048 11.4606 84.6852C11.2485 84.0387 10.8742 83.4733 10.338 82.9889C9.67313 82.3463 8.75346 82.0249 7.57895 82.0249C6.51524 82.0249 5.66205 82.3019 5.01939 82.856C4.37673 83.3878 4.0554 84.1634 4.0554 85.1828C4.0554 85.9806 4.27701 86.6454 4.72022 87.1773C5.16343 87.687 5.71745 88.097 6.38227 88.4072C7.06925 88.6953 8 89.0388 9.17452 89.4377C10.6593 89.903 11.867 90.3795 12.7978 90.867C13.7507 91.3324 14.5485 92.0194 15.1911 92.928C15.856 93.8366 16.1884 95.0332 16.1884 96.518Z" fill="white"/>
<path d="M59.9547 102.025L57.9504 96.6481L56.524 92.8293L51.5498 79.481C51.4429 79.1924 51.159 79 50.8383 79H47.1603C46.8396 79 46.5557 79.1924 46.4488 79.481L38.0439 102.028C37.9103 102.394 38.0941 102.769 38.4248 102.926C38.525 102.971 38.6352 103 38.7555 103H41.4246C41.7186 103 41.9824 102.836 42.106 102.583C42.1127 102.57 42.1194 102.561 42.1228 102.548C42.1294 102.538 42.1328 102.529 42.1361 102.516C42.7174 101.249 43.5458 100.066 44.6282 99.0272C47.0267 96.725 50.1903 95.6028 53.3337 95.6669L54.9272 100.063L55.8258 102.513C55.9327 102.804 56.2166 102.997 56.5407 102.997H59.2432C59.7677 102.997 60.1318 102.5 59.9547 102.028V102.025ZM44.9857 94.6762L48.2861 85.7014C48.5233 85.0537 49.4753 85.0569 49.7125 85.7014L52.1812 92.4766C49.6724 92.6176 47.1904 93.3519 44.9857 94.6762Z" fill="white"/>
<line x1="68.1516" y1="47.6309" x2="112.491" y2="47.6309" stroke="#FF4A04" stroke-width="2"/>
<line x1="90.6061" y1="1" x2="90.6061" y2="59" stroke="#FF4A04" stroke-width="2"/>
<line x1="61.3212" y1="29.3574" x2="119.321" y2="29.3574" stroke="#FF4A04" stroke-width="2"/>
<path d="M68.8666 10.8027H111.776" stroke="#FF4A04" stroke-width="2"/>
<path d="M98.5682 34.4312L98.5932 34.4243L98.6178 34.4162L107.408 31.5118C107.953 31.3908 108.397 31.0933 108.69 30.6673C108.984 30.2391 109.082 29.745 109.057 29.2982C109.011 28.4664 108.49 27.4711 107.435 27.1914L98.6441 24.4691L98.6342 24.4661L98.6243 24.4632C97.1053 24.027 96.0229 22.9473 95.5749 21.3748L95.5696 21.3561L95.5636 21.3377L92.687 12.5488C92.5666 12.0014 92.2689 11.5546 91.839 11.2615C91.4077 10.9676 90.9114 10.8736 90.4659 10.9014C89.6405 10.9531 88.6469 11.4732 88.3661 12.5181L85.6429 21.3088L85.6428 21.3088L85.6398 21.3189C85.1737 22.8818 84.0861 23.956 82.5576 24.3746L82.534 24.3811L82.5108 24.3886L73.7203 27.2647C73.1735 27.3849 72.7266 27.6815 72.4322 28.1098C72.1365 28.54 72.0393 29.0363 72.0651 29.4843C72.1135 30.3237 72.6379 31.3143 73.681 31.6113L82.4 34.3113C83.8602 35.0634 85.1485 36.2273 85.5638 37.4535C85.5643 37.4548 85.5647 37.4561 85.5651 37.4574L88.4389 46.2378C88.5591 46.7844 88.8557 47.2309 89.283 47.5251C89.7124 47.8207 90.208 47.9186 90.6555 47.8926C91.4885 47.8442 92.4812 47.3196 92.7603 46.2668L95.4831 37.4778L95.4831 37.4778L95.4853 37.4704C95.9505 35.9262 97.0381 34.8503 98.5682 34.4312Z" fill="white" stroke="#FF4A04" stroke-width="2"/>
<circle cx="90.5" cy="29.5" r="28.5" stroke="#FF4A04" stroke-width="2"/>
<path d="M109.012 29.5C109.012 37.478 106.873 44.6552 103.467 49.8082C100.055 54.9691 95.4546 58 90.5122 58C85.5698 58 80.9692 54.9691 77.5578 49.8082C74.1516 44.6552 72.0122 37.478 72.0122 29.5C72.0122 21.522 74.1516 14.3448 77.5578 9.19178C80.9692 4.03095 85.5698 1 90.5122 1C95.4546 1 100.055 4.03095 103.467 9.19178C106.873 14.3448 109.012 21.522 109.012 29.5Z" stroke="#FF4A04" stroke-width="2"/>
</svg>
