<svg width="57" height="57" viewBox="0 0 57 57" fill="none" xmlns="http://www.w3.org/2000/svg">
<line x1="6.81335" y1="45.3774" x2="49.0549" y2="45.3774" stroke="#1B1B53" stroke-width="1.90537"/>
<line x1="28.2052" y1="0.953125" x2="28.2052" y2="56.2089" stroke="#1B1B53" stroke-width="1.90537"/>
<line x1="0.305908" y1="27.9692" x2="55.5617" y2="27.9692" stroke="#1B1B53" stroke-width="1.90537"/>
<path d="M7.49438 10.293H48.3733" stroke="#1B1B53" stroke-width="1.90537"/>
<path d="M35.7907 32.8018L35.8145 32.7953L35.838 32.7876L44.2122 30.0206C44.7317 29.9054 45.1549 29.6219 45.4336 29.2161C45.7137 28.8081 45.8074 28.3374 45.7836 27.9117C45.7393 27.1193 45.2431 26.1711 44.2377 25.9046L35.863 23.3112L35.8536 23.3082L35.8442 23.3055C34.397 22.8899 33.3658 21.8614 32.9391 20.3632L32.934 20.3454L32.9283 20.3279L30.1878 11.9548C30.0731 11.4333 29.7895 11.0076 29.3799 10.7284C28.969 10.4484 28.4962 10.3588 28.0718 10.3854C27.2854 10.4346 26.3388 10.9301 26.0714 11.9255L23.4769 20.3004L23.4769 20.3003L23.474 20.31C23.0299 21.7989 21.9938 22.8223 20.5376 23.2211L20.5152 23.2272L20.4931 23.2345L12.1184 25.9745C11.5976 26.0889 11.1718 26.3715 10.8914 26.7796C10.6096 27.1894 10.517 27.6622 10.5416 28.089C10.5877 28.8887 11.0873 29.8324 12.0811 30.1154L20.3875 32.6876C21.7786 33.4041 23.006 34.513 23.4017 35.6812C23.4021 35.6824 23.4025 35.6837 23.4029 35.6849L26.1407 44.0498C26.2552 44.5706 26.5377 44.996 26.9449 45.2763C27.3539 45.5579 27.826 45.6512 28.2524 45.6264C29.0459 45.5803 29.9917 45.0805 30.2576 44.0775L32.8516 35.7043L32.8516 35.7044L32.8537 35.6972C33.2969 34.2261 34.333 33.2011 35.7907 32.8018Z" fill="#FF4A04" stroke="#1B1B53" stroke-width="1.90537"/>
<circle cx="28.1042" cy="28.1042" r="27.1516" stroke="#1B1B53" stroke-width="1.90537"/>
<path d="M45.7405 28.1042C45.7405 35.7048 43.7024 42.5424 40.4573 47.4516C37.2073 52.3683 32.8244 55.2558 28.1158 55.2558C23.4073 55.2558 19.0244 52.3683 15.7744 47.4516C12.5293 42.5424 10.4911 35.7048 10.4911 28.1042C10.4911 20.5037 12.5293 13.6661 15.7744 8.75688C19.0244 3.84023 23.4073 0.952686 28.1158 0.952686C32.8244 0.952686 37.2073 3.84023 40.4573 8.75688C43.7024 13.6661 45.7405 20.5037 45.7405 28.1042Z" stroke="#1B1B53" stroke-width="1.90537"/>
</svg>
