<svg width="247" height="57" viewBox="0 0 247 57" fill="none" xmlns="http://www.w3.org/2000/svg">
<path d="M241.851 28.2622C243.202 28.5366 244.279 29.1806 245.081 30.1939C245.904 31.1862 246.316 32.3579 246.316 33.7091C246.316 35.5881 245.683 37.0765 244.416 38.1743C243.17 39.2511 241.355 39.7894 238.969 39.7894H230.033C229.669 39.7894 229.374 39.494 229.374 39.1297V18.0914C229.374 17.727 229.669 17.4316 230.033 17.4316H238.779C241.038 17.4316 242.769 17.9278 243.973 18.92C245.197 19.9123 245.809 21.3057 245.809 23.1003C245.809 24.4937 245.44 25.6337 244.701 26.5204C243.983 27.4071 243.033 27.9877 241.851 28.2622ZM233.839 26.1457C233.839 26.5101 234.134 26.8054 234.499 26.8054H237.861C238.98 26.8054 239.824 26.5627 240.394 26.0771C240.985 25.5704 241.281 24.8526 241.281 23.9236C241.281 22.9947 240.996 22.2769 240.426 21.7702C239.856 21.2635 238.98 21.0102 237.797 21.0102H234.499C234.134 21.0102 233.839 21.3055 233.839 21.6699V26.1457ZM238.082 36.1476C239.265 36.1476 240.172 35.8942 240.806 35.3875C241.439 34.8597 241.756 34.0997 241.756 33.1074C241.756 32.1151 241.429 31.3551 240.774 30.8273C240.141 30.2784 239.233 30.0039 238.051 30.0039H234.499C234.134 30.0039 233.839 30.2993 233.839 30.6637V35.4878C233.839 35.8522 234.134 36.1476 234.499 36.1476H238.082Z" fill="white"/>
<path d="M215.3 20.9785V26.7738H222.558C222.922 26.7738 223.217 27.0692 223.217 27.4335V29.5342C223.217 29.8986 222.922 30.1939 222.558 30.1939H215.3V36.2109H223.508C223.872 36.2109 224.167 36.5063 224.167 36.8707V39.1297C224.167 39.494 223.872 39.7894 223.508 39.7894H211.495C211.13 39.7894 210.835 39.494 210.835 39.1297V18.0914C210.835 17.727 211.13 17.4316 211.495 17.4316H223.508C223.872 17.4316 224.167 17.727 224.167 18.0914V20.3187C224.167 20.6831 223.872 20.9785 223.508 20.9785H215.3Z" fill="white"/>
<path d="M205.039 17.4316C205.467 17.4316 205.782 17.8328 205.68 18.2484L200.525 39.2867C200.453 39.5818 200.188 39.7894 199.884 39.7894H195.403C195.102 39.7894 194.839 39.5858 194.764 39.2944L190.711 23.5753L186.628 39.2955C186.552 39.5864 186.29 39.7894 185.989 39.7894H181.538C181.234 39.7894 180.97 39.5818 180.898 39.2867L175.742 18.2484C175.64 17.8328 175.955 17.4316 176.383 17.4316H179.845C180.16 17.4316 180.431 17.6545 180.492 17.9636L183.808 34.7542L188.114 17.9278C188.189 17.6359 188.452 17.4316 188.753 17.4316H192.638C192.939 17.4316 193.202 17.6353 193.277 17.9267L197.615 34.7542L200.93 17.9636C200.991 17.6545 201.262 17.4316 201.577 17.4316H205.039Z" fill="white"/>
<path d="M162.267 28.4839L171.164 38.6963C171.536 39.1232 171.232 39.7894 170.666 39.7894H168.018C167.825 39.7894 167.642 39.7048 167.517 39.5579L158.879 29.4339V39.1297C158.879 39.494 158.583 39.7894 158.219 39.7894H155.928C155.564 39.7894 155.268 39.494 155.268 39.1297V18.0914C155.268 17.727 155.564 17.4316 155.928 17.4316H158.219C158.583 17.4316 158.879 17.727 158.879 18.0914V27.6605L167.548 17.6592C167.674 17.5147 167.856 17.4316 168.047 17.4316H170.644C171.214 17.4316 171.516 18.105 171.137 18.5303L162.267 28.4839Z" fill="white"/>
<path d="M146.557 39.7894C146.329 39.7894 146.117 39.6721 145.997 39.479L140.617 30.859H138.052V39.1297C138.052 39.494 137.757 39.7894 137.392 39.7894H135.102C134.737 39.7894 134.442 39.494 134.442 39.1297V18.0914C134.442 17.727 134.737 17.4316 135.102 17.4316H142.327C144.882 17.4316 146.814 18.0545 148.122 19.3001C149.453 20.5457 150.118 22.1924 150.118 24.2403C150.118 25.9926 149.621 27.4282 148.629 28.5472C147.658 29.6661 146.243 30.3839 144.386 30.7006L149.589 38.7722C149.872 39.2112 149.556 39.7894 149.034 39.7894H146.557ZM138.052 28.2938H142.042C144.956 28.2938 146.412 27.006 146.412 24.4303C146.412 23.2058 146.053 22.2558 145.336 21.5802C144.639 20.8835 143.541 20.5351 142.042 20.5351H138.052V28.2938Z" fill="white"/>
<path d="M106.654 17.4316C107.019 17.4316 107.314 17.727 107.314 18.0914V19.6854C107.314 20.0497 107.019 20.3451 106.654 20.3451H101.075V39.1297C101.075 39.494 100.78 39.7894 100.416 39.7894H98.0932C97.7288 39.7894 97.4334 39.494 97.4334 39.1297V20.3451H91.8862C91.5218 20.3451 91.2264 20.0497 91.2264 19.6854V18.0914C91.2264 17.727 91.5218 17.4316 91.8862 17.4316H106.654Z" fill="white"/>
<path d="M87.4224 33.8356C87.4224 34.9335 87.1585 35.9574 86.6307 36.9075C86.1029 37.8364 85.3007 38.5859 84.2239 39.1559C83.1472 39.7259 81.8277 40.011 80.2654 40.011C78.7453 40.011 77.3836 39.7471 76.1802 39.2192C74.9768 38.6703 74.0162 37.9103 73.2984 36.9391C72.7179 36.1537 72.3376 35.2716 72.1575 34.2929C72.0876 33.9132 72.3944 33.5823 72.7804 33.5823H75.3349C75.6717 33.5823 75.9483 33.8381 76.031 34.1646C76.2149 34.891 76.5919 35.5308 77.1619 36.0841C77.9008 36.7808 78.8826 37.1291 80.1071 37.1291C81.2049 37.1291 82.0494 36.8336 82.6405 36.2424C83.2528 35.6513 83.5589 34.8913 83.5589 33.9623C83.5589 33.1601 83.3372 32.5056 82.8939 31.9989C82.4505 31.4711 81.9016 31.0594 81.2471 30.7638C80.5926 30.4683 79.6954 30.1305 78.5553 29.7504C77.1619 29.3071 76.0219 28.8637 75.1352 28.4204C74.2696 27.977 73.5306 27.3331 72.9184 26.4886C72.3061 25.6441 72 24.5357 72 23.1635C72 21.9601 72.2956 20.9044 72.8867 19.9966C73.4779 19.0888 74.3223 18.3921 75.4202 17.9065C76.518 17.3998 77.7847 17.1465 79.2204 17.1465C81.5005 17.1465 83.3056 17.6954 84.6356 18.7932C85.7976 19.7373 86.5302 20.9312 86.8334 22.3749C86.914 22.7587 86.6054 23.1001 86.2132 23.1001H83.6065C83.286 23.1001 83.0183 22.8672 82.9184 22.5627C82.7163 21.9468 82.3597 21.4081 81.8488 20.9467C81.2155 20.3344 80.3393 20.0283 79.2204 20.0283C78.207 20.0283 77.3942 20.2922 76.7819 20.82C76.1697 21.3267 75.8635 22.0656 75.8635 23.0368C75.8635 23.7968 76.0746 24.4302 76.4969 24.9369C76.9191 25.4225 77.4469 25.813 78.0803 26.1086C78.7348 26.3831 79.6215 26.7103 80.7404 27.0903C82.1549 27.5337 83.3056 27.9876 84.1923 28.452C85.1001 28.8954 85.8601 29.5499 86.4724 30.4155C87.1058 31.2811 87.4224 32.4211 87.4224 33.8356Z" fill="white"/>
<path d="M130.475 39.0823L128.565 33.9596L127.206 30.3214L122.468 17.6047C122.366 17.3298 122.095 17.1465 121.79 17.1465H118.286C117.98 17.1465 117.71 17.3298 117.608 17.6047L109.601 39.0854C109.474 39.4336 109.649 39.791 109.964 39.9407C110.059 39.9835 110.164 40.011 110.279 40.011H112.822C113.102 40.011 113.353 39.8552 113.471 39.6138C113.477 39.6016 113.483 39.5925 113.487 39.5802C113.493 39.5711 113.496 39.5619 113.499 39.5497C114.053 38.3431 114.842 37.2159 115.874 36.2262C118.159 34.0329 121.172 32.9638 124.167 33.0248L125.685 37.2128L126.541 39.5466C126.643 39.8246 126.914 40.0079 127.222 40.0079H129.797C130.297 40.0079 130.644 39.5344 130.475 39.0854V39.0823ZM116.214 32.0809L119.358 23.5308C119.584 22.9138 120.491 22.9168 120.717 23.5308L123.069 29.9854C120.679 30.1198 118.315 30.8193 116.214 32.0809Z" fill="white"/>
<line x1="6.81335" y1="45.3774" x2="49.0549" y2="45.3774" stroke="#FF4A04" stroke-width="1.90537"/>
<line x1="28.2052" y1="0.953125" x2="28.2052" y2="56.2089" stroke="#FF4A04" stroke-width="1.90537"/>
<line x1="0.305908" y1="27.9692" x2="55.5617" y2="27.9692" stroke="#FF4A04" stroke-width="1.90537"/>
<path d="M7.49438 10.293H48.3733" stroke="#FF4A04" stroke-width="1.90537"/>
<path d="M35.7907 32.8018L35.8145 32.7953L35.838 32.7876L44.2122 30.0206C44.7317 29.9054 45.1549 29.6219 45.4336 29.2161C45.7137 28.8082 45.8074 28.3374 45.7836 27.9117C45.7393 27.1193 45.2431 26.1711 44.2378 25.9046L35.863 23.3112L35.8536 23.3083L35.8442 23.3055C34.397 22.8899 33.3658 21.8614 32.9391 20.3632L32.934 20.3454L32.9283 20.3279L30.1878 11.9548C30.0731 11.4333 29.7895 11.0076 29.3799 10.7284C28.969 10.4484 28.4962 10.3588 28.0718 10.3854C27.2854 10.4346 26.3388 10.9301 26.0714 11.9255L23.4769 20.3004L23.4769 20.3003L23.474 20.31C23.0299 21.7989 21.9938 22.8223 20.5376 23.2211L20.5152 23.2272L20.4931 23.2345L12.1184 25.9745C11.5976 26.0889 11.1718 26.3715 10.8914 26.7796C10.6096 27.1894 10.517 27.6623 10.5416 28.089C10.5877 28.8886 11.0872 29.8324 12.081 30.1153L20.3875 32.6877C21.7786 33.4041 23.0059 34.513 23.4016 35.6811C23.402 35.6823 23.4025 35.6836 23.4029 35.6849L26.1407 44.0498C26.2552 44.5706 26.5377 44.996 26.9449 45.2763C27.3539 45.5579 27.826 45.6512 28.2524 45.6264C29.0459 45.5803 29.9917 45.0805 30.2576 44.0775L32.8516 35.7044L32.8516 35.7044L32.8537 35.6972C33.2969 34.2261 34.333 33.2011 35.7907 32.8018Z" fill="white" stroke="#FF4A04" stroke-width="1.90537"/>
<circle cx="28.1042" cy="28.1042" r="27.1516" stroke="#FF4A04" stroke-width="1.90537"/>
<path d="M45.7405 28.1042C45.7405 35.7048 43.7024 42.5424 40.4573 47.4516C37.2073 52.3683 32.8244 55.2558 28.1158 55.2558C23.4073 55.2558 19.0244 52.3683 15.7744 47.4516C12.5293 42.5424 10.4911 35.7048 10.4911 28.1042C10.4911 20.5037 12.5293 13.6661 15.7744 8.75688C19.0244 3.84023 23.4073 0.952686 28.1158 0.952686C32.8244 0.952686 37.2073 3.84023 40.4573 8.75688C43.7024 13.6661 45.7405 20.5037 45.7405 28.1042Z" stroke="#FF4A04" stroke-width="1.90537"/>
</svg>
